# xmcd
#
# Track frame offsets: 
#        150
#        12025
#        37905
#        54786
#        100188
#        120192
#        141659
#        160609
#        195114
#        207413
#        218480
#        241392
#        262192
#
# Disc length: 3830 seconds
#
# Revision: 2
# Processed by: cddbd v1.5.2PL0 Copyright (c) Steve Scherf et al.
# Submitted via: ExactAudioCopyFreeDBPlugin 1.0
#
DISCID=a20ef40d
DTITLE=Various Artist - Simply Late Night Jazz - CD 3 Trumpet `Round Midnight
DYEAR=2008
DGENRE=Jazz
TTITLE0=Miles Davis - Milestones
TTITLE1=Wallace Roney - Blue In Green
TTITLE2=Dizzy Gillespie - They Can't Take That Away From Me
TTITLE3=Woody Shaw - It Might As Well Be Spring
TTITLE4=Gigi Gryce - In A Meditating Mood
TTITLE5=EJQ - What A Wonderful World
TTITLE6=Lee Morgan - P.S. I Love You
TTITLE7=Donald Byrd - Alter Ego
TTITLE8=Fats Navarro - Nostalgia
TTITLE9=Russell Gunn - Bronwyn
TTITLE10=Joe Wilder - Prelude To A Kiss
TTITLE11=EJQ - Easy Dreaming
TTITLE12=Red Rodney - You Better Go Now
EXTD=YEAR: 2008
EXTT0=
EXTT1=
EXTT2=
EXTT3=
EXTT4=
EXTT5=
EXTT6=
EXTT7=
EXTT8=
EXTT9=
EXTT10=
EXTT11=
EXTT12=
PLAYORDER=
